<svg width="813" height="813" viewBox="0 0 813 813" fill="none" xmlns="http://www.w3.org/2000/svg">
<circle cx="406.5" cy="406.5" r="406.5" fill="#1D40BA"/>
<path d="M390.659 439.595C397.532 442.886 405.191 444.265 411.868 447.995C418.579 451.742 425.511 455.109 432.104 459.051C438.561 462.908 444.79 467.18 450.993 471.452C457.299 475.791 463.443 480.35 469.731 484.859C471.204 482.939 470.594 481.044 470.577 479.284C470.273 451.937 473.023 424.953 480.437 398.553C490.974 361.029 509.491 328.251 538.52 301.808C552.729 288.874 568.623 278.428 586.032 270.341C605.506 261.29 625.894 255.03 646.975 251.055C650.581 250.37 654.296 250.099 657.969 250.023C661.32 249.955 662.048 250.784 661.998 254.176C661.921 260.165 661.532 266.154 661.464 272.151C660.999 314.107 660.474 356.064 660.186 398.028C659.924 436.533 653.67 473.955 639.57 509.813C608.096 589.885 536.802 647.557 451.806 662.234C317.504 685.42 188 599.283 157.439 466.444C131.271 352.68 186.595 237.546 291.818 186.826C293.341 186.09 294.831 185.278 296.405 184.661C299.612 183.4 300.738 183.849 302.397 186.826C308.592 197.992 312.07 210.012 313.924 222.599C315.473 233.105 316.2 243.679 316.928 254.261C317.216 258.473 317.25 258.465 321.27 259.108C337.46 261.696 352.296 267.854 366.235 276.288C387.621 289.238 405.25 306.122 418.749 327.202C420.712 330.272 423.116 332.658 426.239 334.502C437.622 341.235 448.937 348.07 460.303 354.837C462.986 356.436 465.33 358.339 467.006 361.029C468.275 363.059 468.25 364.903 467.184 367.086C458.06 385.585 445.289 401.217 429.421 414.244C418.706 423.041 406.824 430.155 394.519 436.542C393.435 437.108 392.344 437.667 391.294 438.284C391.083 438.411 391.032 438.8 390.659 439.595Z" fill="white"/>
</svg>
